<?xml version="1.0" encoding="utf-8"?>
<!-- Generator: Adobe Illustrator 21.1.0, SVG Export Plug-In . SVG Version: 6.00 Build 0)  -->
<svg version="1.1" id="Layer_1" xmlns="http://www.w3.org/2000/svg" xmlns:xlink="http://www.w3.org/1999/xlink" x="0px" y="0px"
	 viewBox="0 0 1920 1080" style="enable-background:new 0 0 1920 1080;" xml:space="preserve">
<style type="text/css">
	.st0{fill:url(#SVGID_1_);}
	.st1{fill:#24303E;}
	.st2{fill:#FFFFFF;}
	.st3{fill:none;stroke:#A4C139;stroke-width:1.7688;stroke-miterlimit:10;}
</style>
<g>
	<linearGradient id="SVGID_1_" gradientUnits="userSpaceOnUse" x1="210" y1="-210" x2="1710" y2="1290">
		<stop  offset="0" style="stop-color:#24303E"/>
		<stop  offset="1" style="stop-color:#1B232E"/>
	</linearGradient>
	<rect class="st0" width="1920" height="1080"/>
</g>
<g>
	<rect x="701.2" y="-1147.4" class="st1" width="453.3" height="255"/>
</g>
<g>
	<path class="st2" d="M967.4,522.2c0,5.3-1.3,8.3-5.2,8.3c-3.3,0-5-1.5-5-6.3v-14.3h-13.7v16.7c0,9.9,4.9,14.5,12.4,14.5
		c5.7,0,9-1.3,12.5-6.1v5.1h12.7v-30.2h-13.7V522.2z"/>
	<path class="st2" d="M1074.5,523.2c0,11.6,8.6,18,19.7,18c8.1,0,16.8-2.8,19.2-11.4h-13.1c-1,2-3,3-5.2,3c-3.6,0-6.8-2.7-6.8-6.8
		h26.2c0.1-6.6-2-12.2-5.9-16h-28.7C1076.5,513.1,1074.5,517.7,1074.5,523.2z M1094.6,513c3.2,0,6.1,2.8,6.1,6h-12.5
		C1088.2,515.3,1090.5,513,1094.6,513z"/>
	<path class="st2" d="M1030.6,523.5c0,9.8,5.3,17.6,15.7,17.6c4.4,0,7.4-1.4,10.6-5.6v4.6h12.3v-30.2h-34.6
		C1032.1,513.2,1030.6,517.9,1030.6,523.5z M1050.1,515.2c4.6,0,5.9,4.2,5.9,8c0,4-1.5,8.1-6.3,8.1c-4.5,0-5.4-4.2-5.4-7.9
		C1044.3,519.6,1045.6,515.2,1050.1,515.2z"/>
	<g>
		<path class="st2" d="M804.7,490.5c-0.3-1.7-1.1-2.6-2.2-3.2c-1.1-0.6-2.5-0.9-4-0.9c-3.4,0-5,1-5,2.7c0,7.1,27.3,2.7,27.3,20
			c0,11-9.2,16.4-22.3,16.4c-12.5,0-20.7-7.3-21.1-15.9h14.9c0.3,1.7,1.3,3,2.6,3.8c1.3,0.8,2.9,1.2,4.4,1.2c3.9,0,6.5-1.3,6.5-3.5
			c0-7.2-27.3-2.2-27.3-20.4c0-10.1,8.7-15.2,20.6-15.2c13.2,0,19.2,6.7,20.3,15.1H804.7z"/>
		<path class="st2" d="M827.1,475.5h13.7v9.8h-13.7V475.5z M827.1,524.3v-34.6h13.7v34.6H827.1z"/>
		<path class="st2" d="M871,524.3c-18,1-20.2-0.3-20.2-12.2v-14.5h-4.9v-7.9h5.1v-10.8h13.5v10.8h6.6v7.9h-6.6v12.5
			c0,3.2,0.5,4.3,4.3,4.3h2.2V524.3z"/>
		<path class="st2" d="M890.1,510.1c0,4.1,3.2,6.8,6.8,6.8c2.2,0,4.2-1,5.2-3h13.1c-2.4,8.6-11.1,11.4-19.2,11.4
			c-11.1,0-19.7-6.3-19.7-18c0-11.4,8.5-18.6,19.6-18.6c12.8,0,20.5,8.8,20.3,21.4H890.1z M902.6,503.1c0-3.2-2.8-6-6.1-6
			c-4.1,0-6.4,2.3-6.4,6H902.6z"/>
	</g>
	<g>
		<path class="st2" d="M758.1,582.1c-0.1-1.5-0.6-2.7-1.5-3.6c-0.9-0.9-2-1.4-3.6-1.4c-5.2,0-6,5.3-6,9.4c0,5.2,2,8.7,6,8.7
			c3.6,0,5-2.4,5.3-5.2h13.9c-0.6,5.2-3,8.8-6.5,11.2c-3.4,2.2-7.9,3.2-12.7,3.2c-11.2,0-19.7-6.3-19.7-18
			c0-11.8,8.3-18.6,19.7-18.6c9.2,0,18,4,19,14.2H758.1z"/>
		<path class="st2" d="M797.2,567.9c12.2,0,19.7,7.2,19.7,18c0,12.7-8.6,18.6-19.7,18.6c-11.1,0-19.7-6.1-19.7-17.9
			C777.6,574.6,785.5,567.9,797.2,567.9z M791.4,585.9c0,6.5,2.4,9.4,5.9,9.4c3.7,0,5.9-2.8,5.9-9.4c0-5.1-2.2-8.9-5.8-8.7
			C792.7,577.2,791.4,582,791.4,585.9z"/>
		<path class="st2" d="M822.5,568.9h12.5v5.4c3.1-4.2,6.5-6.4,11.7-6.4c9.1,0,13.4,5.3,13.4,14.9v20.7h-13.7v-18.3
			c0-3.4-0.9-6.5-4.8-6.5c-4.2,0-5.3,2.7-5.3,7.1v17.6h-13.7V568.9z"/>
		<path class="st2" d="M878.6,592.8c0,1.4,0.5,2.4,1.5,3.2c0.9,0.7,2,1.1,3.4,1.1c2.1,0,4.4-0.7,4.4-3.1c0-5.5-21.2-1.1-21.2-14.5
			c0-8.8,9.2-11.4,16.4-11.4c7.5,0,16.4,1.7,17.2,10.9h-12.5c-0.1-1.1-0.6-1.9-1.3-2.5c-0.7-0.6-1.7-0.9-2.8-0.9
			c-2.4,0-3.9,0.7-3.9,2.4c0,4.8,21.9,1.6,21.9,14.5c0,7.2-5.9,12.1-18.6,12.1c-7.9,0-16.6-2.4-17.4-11.8H878.6z"/>
		<path class="st2" d="M929.8,603.5c-18,1-20.2-0.3-20.2-12.2v-14.5h-4.9v-7.9h5.1v-10.8h13.5v10.8h6.6v7.9h-6.6v12.5
			c0,3.2,0.5,4.3,4.3,4.3h2.2V603.5z"/>
		<path class="st2" d="M936.5,568.9H949v7h0.1c1.9-5.4,5.3-8,10.6-8c0.6,0,1.2,0.1,1.8,0.2v13.7c-0.9-0.1-1.9-0.4-2.8-0.4
			c-5.6,0-8.5,2.6-8.5,10.1v12h-13.7V568.9z"/>
		<path class="st2" d="M1003.2,603.5h-12.7v-5.1c-3.4,4.8-6.8,6.1-12.5,6.1c-7.5,0-12.4-4.6-12.4-14.5v-21.1h13.7v18.7
			c0,4.8,1.7,6.3,5,6.3c4,0,5.2-3,5.2-8.3v-16.6h13.7V603.5z"/>
		<path class="st2" d="M1033.3,582.1c-0.1-1.5-0.6-2.7-1.5-3.6c-0.9-0.9-2-1.4-3.6-1.4c-5.2,0-6,5.3-6,9.4c0,5.2,2,8.7,6,8.7
			c3.6,0,5-2.4,5.3-5.2h13.9c-0.6,5.2-3,8.8-6.5,11.2c-3.4,2.2-7.9,3.2-12.7,3.2c-11.2,0-19.7-6.3-19.7-18
			c0-11.8,8.3-18.6,19.7-18.6c9.2,0,18,4,19,14.2H1033.3z"/>
		<path class="st2" d="M1076.5,603.5c-18,1-20.2-0.3-20.2-12.2v-14.5h-4.9v-7.9h5.1v-10.8h13.5v10.8h6.6v7.9h-6.6v12.5
			c0,3.2,0.5,4.3,4.3,4.3h2.2V603.5z"/>
		<path class="st2" d="M1083.9,554.7h13.7v9.8h-13.7V554.7z M1083.9,603.5v-34.6h13.7v34.6H1083.9z"/>
		<path class="st2" d="M1123.7,567.9c12.2,0,19.7,7.2,19.7,18c0,12.7-8.6,18.6-19.7,18.6c-11.1,0-19.7-6.1-19.7-17.9
			C1104.1,574.6,1112,567.9,1123.7,567.9z M1117.8,585.9c0,6.5,2.4,9.4,5.9,9.4c3.7,0,5.9-2.8,5.9-9.4c0-5.1-2.2-8.9-5.8-8.7
			C1119.2,577.2,1117.8,582,1117.8,585.9z"/>
		<path class="st2" d="M1149,568.9h12.5v5.4c3.1-4.2,6.5-6.4,11.7-6.4c9.1,0,13.4,5.3,13.4,14.9v20.7h-13.7v-18.3
			c0-3.4-0.9-6.5-4.8-6.5c-4.2,0-5.3,2.7-5.3,7.1v17.6H1149V568.9z"/>
	</g>
	<path class="st2" d="M1000.1,511v-1.1h-12.5v30.2h13.7v-17.6c0-4.4,1.1-7.1,5.3-7.1c3.9,0,4.8,3,4.8,6.5v18.3h13.7v-20.7
		c0-3.9-0.7-7.1-2.2-9.5h-22C1000.6,510.3,1000.4,510.6,1000.1,511z"/>
	<path class="st2" d="M1133.7,509.9c-0.4,0.8-0.8,1.7-1.2,2.6h-0.1v-2.6h-12.5v30.2h13.7v-12c0-7.5,2.8-10.1,8.5-10.1
		c0.9,0,1.9,0.3,2.8,0.4v-8.6H1133.7z"/>
	<line class="st3" x1="929.9" y1="509.9" x2="1163" y2="509.9"/>
</g>
</svg>
